PathFileType	4	(X/Y/Z)	/Users/itak/Documents/Research/Walk-IL/dataset/trc/00530_00183.trc
DataRate	CameraRate	NumFrames	NumMarkers	Units	OrigDataRate	OrigDataStartFrame	OrigNumFrames
100.000000	100.000000	4	53	mm	100.000000	342	457
Frame#	Time	RPSI			LPSI			L3			STRN			T10			C7			CLAV			RBAK			LBAK			LSHO			LUPA			LAEL			LAOL			LWTS			LFRA			LIFD			LHPS			LHTS			RSHO			RUPA			RAEL			RAOL			RWTS			RWPS			RFRA			RIFD			RHTS			RHPS			RBHD			LFHD			RFHD			LBHD			LHIP			RASI			LASI			LKNE			LTHI			LANK			LTIP			LTOE			LMT1			LMT5			LHEE			RKNE			RTHI			RANK			RTIP			RTOE			RMT1			RMT5			RHEE			LWPS			RHIP			
		X1	Y1	Z1	X2	Y2	Z2	X3	Y3	Z3	X4	Y4	Z4	X5	Y5	Z5	X6	Y6	Z6	X7	Y7	Z7	X8	Y8	Z8	X9	Y9	Z9	X10	Y10	Z10	X11	Y11	Z11	X12	Y12	Z12	X13	Y13	Z13	X14	Y14	Z14	X15	Y15	Z15	X16	Y16	Z16	X17	Y17	Z17	X18	Y18	Z18	X19	Y19	Z19	X20	Y20	Z20	X21	Y21	Z21	X22	Y22	Z22	X23	Y23	Z23	X24	Y24	Z24	X25	Y25	Z25	X26	Y26	Z26	X27	Y27	Z27	X28	Y28	Z28	X29	Y29	Z29	X30	Y30	Z30	X31	Y31	Z31	X32	Y32	Z32	X33	Y33	Z33	X34	Y34	Z34	X35	Y35	Z35	X36	Y36	Z36	X37	Y37	Z37	X38	Y38	Z38	X39	Y39	Z39	X40	Y40	Z40	X41	Y41	Z41	X42	Y42	Z42	X43	Y43	Z43	X44	Y44	Z44	X45	Y45	Z45	X46	Y46	Z46	X47	Y47	Z47	X48	Y48	Z48	X49	Y49	Z49	X50	Y50	Z50	X51	Y51	Z51	X52	Y52	Z52	X53	Y53	Z53	

343	3.42	584.636962890625	937.7191162109375	501.6252746582031	651.3883056640625	934.8677368164062	397.4556274414062	613.267578125	1006.034423828125	451.5441284179688	796.6410522460938	1179.21044921875	544.1524047851562	591.6351318359375	1108.043334960938	449.6376037597656	613.2440185546875	1340.481689453125	466.0048522949219	758.7926635742188	1271.787963867188	527.4834594726562	541.4149780273438	1215.063842773438	527.1447143554688	628.17529296875	1285.97998046875	377.2268981933594	741.3604736328125	1337.076049804688	346.2006225585938	753.7116088867188	1211.390502929688	284.2840576171875	768.8441162109375	1002.58203125	257.7196655273438	678.9705810546875	993.3604125976562	300.493896484375	834.1280517578125	809.6115112304688	313.6258850097656	782.3650512695312	916.544677734375	257.7847290039062	824.1611328125	652.5706176757812	321.4484558105469	790.1920166015625	723.6757202148438	260.5680847167969	844.051513671875	731.317138671875	296.6916809082031	604.673828125	1335.830688476562	623.6893920898438	569.9871826171875	1267.320922851562	670.6201171875	573.94482421875	1001.04638671875	722.2269287109375	546.1715698242188	981.024658203125	664.7235717773438	690.7503662109375	810.56787109375	753.3789672851562	605.3674926757812	781.13037109375	756.7192993164062	578.6873168945312	947.77197265625	733.2310180664062	705.0001831054688	652.0433959960938	766.6053466796875	699.9613647460938	719.9010009765625	787.1539916992188	631.7169189453125	710.6307983398438	772.64111328125	599.299560546875	1491.9189453125	547.75048828125	769.408447265625	1572.69580078125	479.6534729003906	707.7488403320312	1566.439819335938	590.5958251953125	666.1417846679688	1494.417602539062	400.3094482421875	817.2853393554688	868.8972778320312	349.7354736328125	723.9235229492188	887.2015380859375	664.3822021484375	850.55810546875	909.2221069335938	458.2520751953125	914.156494140625	473.6910095214844	479.2178344726562	891.2465209960938	621.218505859375	424.3980407714844	899.889892578125	39.75303649902344	488.7976989746094	926.3711547851562	318.4075317382812	484.4655151367188	1041.23388671875	30.5507926940918	642.291015625	955.7337646484375	39.04624557495117	631.4200439453125	995.7711791992188	33.21161270141602	537.46337890625	829.0746459960938	38.79011917114258	521.3618774414062	628.2317504882812	455.8891906738281	639.3519287109375	633.2508544921875	709.849365234375	677.025634765625	347.1626586914062	170.5654907226562	465.4262084960938	568.1997680664062	335.6213073730469	595.8138427734375	480.7485656738281	33.91829681396484	490.4371948242188	463.3364562988281	76.38927459716797	436.0979309082031	397.3163452148438	79.43708801269531	508.2066650390625	340.7359924316406	207.8184051513672	406.4257507324219	772.1259765625	779.595458984375	249.9446105957031	604.4697875976562	840.4628295898438	666.65966796875	
344	3.43	591.6202392578125	938.812744140625	503.4034118652344	658.7901611328125	936.7080688476562	399.538330078125	620.6223754882812	1007.844970703125	453.6147766113281	804.1326293945312	1180.41259765625	547.2786865234375	599.5191650390625	1109.90283203125	451.8330993652344	621.5110473632812	1342.256713867188	468.5537719726562	766.6333618164062	1273.09912109375	530.5469970703125	549.1558837890625	1216.980590820312	529.2738647460938	636.705078125	1287.76318359375	379.6787109375	750.14501953125	1338.588623046875	349.3034057617188	762.9547119140625	1213.00927734375	287.2875671386719	778.9412231445312	1004.225891113281	260.6737365722656	688.5230712890625	994.892333984375	302.3041381835938	844.4891357421875	812.0040283203125	317.7561645507812	792.8317260742188	918.2713623046875	260.9887084960938	835.9515380859375	654.9310913085938	325.5359802246094	802.1673583984375	725.6848754882812	264.0903015136719	855.4579467773438	733.8377075195312	300.9478454589844	612.332275390625	1337.515380859375	626.1964111328125	577.2691650390625	1269.04443359375	672.8558349609375	579.5503540039062	1002.62646484375	723.7493286132812	552.0521850585938	983.1526489257812	665.86181640625	693.1725463867188	810.0713500976562	754.5372314453125	607.244140625	782.031982421875	756.7236938476562	583.4771728515625	949.361328125	734.513671875	704.4349365234375	651.05322265625	766.020263671875	700.5234985351562	718.801513671875	787.2986450195312	632.194091796875	710.9027709960938	772.076904296875	606.35888671875	1492.829223632812	549.53466796875	776.34912109375	1574.82373046875	482.5040893554688	713.892822265625	1568.372680664062	592.9890747070312	674.1617431640625	1495.340576171875	402.8040771484375	824.7515258789062	870.5265502929688	352.322998046875	730.1170654296875	888.6328735351562	666.7909545898438	857.6094970703125	910.3158569335938	461.1597290039062	917.1893920898438	473.5409240722656	480.279541015625	896.2147216796875	621.7147827148438	426.27294921875	899.94580078125	39.77471923828125	488.9353637695312	928.2180786132812	318.0940246582031	484.9883422851562	1041.214477539062	30.1547908782959	642.5321044921875	955.7722778320312	38.82736206054688	631.4948120117188	995.8710327148438	33.02431488037109	537.5971069335938	829.0835571289062	38.80202484130859	521.471923828125	641.732177734375	456.3945922851562	646.6868286132812	641.0679321289062	711.0543823242188	679.89404296875	357.7012023925781	177.2092895507812	470.9512939453125	581.4580688476562	337.9168395996094	602.6109008789062	488.2913818359375	35.45468139648438	498.6781921386719	472.4759216308594	79.99842834472656	443.8106994628906	405.4642944335938	85.44183349609375	514.7476196289062	352.3800354003906	214.0716552734375	411.6117858886719	783.6519775390625	781.3198852539062	253.1737213134766	610.8987426757812	841.3804931640625	668.5780029296875	
345	3.44	598.297607421875	939.9786987304688	505.1029968261719	665.9512329101562	938.5020751953125	401.5473022460938	627.7628173828125	1009.670104980469	455.5029602050781	811.3243408203125	1181.606323242188	550.43798828125	607.1832275390625	1111.807006835938	453.8748779296875	629.5885620117188	1344.06982421875	471.0439453125	774.22705078125	1274.422607421875	533.6361083984375	556.6751098632812	1218.928955078125	531.250244140625	645.0767822265625	1289.615966796875	382.0650024414062	758.806884765625	1340.174560546875	352.4421691894531	772.1292114257812	1214.71484375	290.3165893554688	789.0509643554688	1005.967956542969	263.6638793945312	698.0479736328125	996.5066528320312	304.0748291015625	854.886962890625	814.5518188476562	321.9177856445312	803.3280029296875	920.1259765625	264.2355651855469	847.9261474609375	657.4476928710938	329.5689086914062	814.2354125976562	727.8543090820312	267.6535949707031	866.9603881835938	736.5418090820312	305.2011108398438	619.6786499023438	1339.211791992188	628.631591796875	584.2108154296875	1270.785278320312	674.9856567382812	584.8778076171875	1004.256164550781	725.258544921875	557.6461181640625	985.2830200195312	667.0198974609375	695.556884765625	809.7948608398438	755.6337280273438	609.1285400390625	783.111572265625	756.832275390625	588.0671997070312	950.996337890625	735.8005981445312	703.97802734375	650.3658447265625	765.4700927734375	701.138671875	717.9895629882812	787.4203491210938	632.7398071289062	711.4139404296875	771.630126953125	613.2974243164062	1493.812377929688	551.3366088867188	783.1930541992188	1576.90234375	485.3414001464844	719.9551391601562	1570.2958984375	595.3828735351562	682.0296630859375	1496.305053710938	405.33837890625	831.9309692382812	872.01953125	354.9448547363281	736.0669555664062	890.2166748046875	669.2257690429688	864.376953125	911.3975830078125	464.0657348632812	920.12451171875	473.4818420410156	481.4534301757812	900.9730224609375	622.2888793945312	428.3141174316406	899.9849853515625	39.81224060058594	489.06640625	929.9570922851562	317.8616638183594	485.5597229003906	1041.14453125	29.90617370605469	642.7513427734375	955.7693481445312	38.62845611572266	631.5756225585938	995.934814453125	32.86907577514648	537.7230224609375	829.0917358398438	38.81515884399414	521.5694580078125	655.0669555664062	457.2740478515625	653.5601806640625	648.5469360351562	712.4511108398438	682.7354125976562	369.0014343261719	182.8521423339844	476.5849609375	594.767333984375	340.3573608398438	609.1782836914062	497.2514343261719	37.54909896850586	508.3353271484375	482.8368530273438	83.19485473632812	452.6248168945312	414.8864135742188	91.35971832275391	522.329345703125	364.6502075195312	218.7608947753906	416.6081237792969	795.2691650390625	783.1886596679688	256.4141235351562	616.9822998046875	842.4859619140625	670.4498291015625	
346	3.45	604.6895751953125	941.2407836914062	506.7838745117188	672.8538208007812	940.2449340820312	403.5289001464844	634.69580078125	1011.507995605469	457.2480163574219	818.24462890625	1182.798461914062	553.5972900390625	614.616455078125	1113.745971679688	455.7911682128906	637.4769897460938	1345.91015625	473.4708251953125	781.5792846679688	1275.760864257812	536.725830078125	563.981689453125	1220.902465820312	533.0914306640625	653.2807006835938	1291.530517578125	384.39306640625	767.3237915039062	1341.837768554688	355.6026916503906	781.2158203125	1216.510131835938	293.3671875	799.129150390625	1007.811401367188	266.7141723632812	707.5193481445312	998.1947631835938	305.8413696289062	865.3209838867188	817.253173828125	326.0926208496094	813.8301391601562	922.1376953125	267.5380859375	860.0216674804688	660.1181030273438	333.53564453125	826.369140625	730.1925659179688	271.2380981445312	878.5201416015625	739.4188842773438	309.4405822753906	626.7396850585938	1340.9208984375	630.9916381835938	590.8439331054688	1272.552490234375	677.02099609375	589.9024658203125	1005.935180664062	726.7252807617188	562.9247436523438	987.4351806640625	668.1565551757812	697.9132080078125	809.749755859375	756.6719970703125	611.031494140625	784.356201171875	757.0450439453125	592.432373046875	952.6779174804688	737.0613403320312	703.69482421875	649.9946899414062	765.0003051757812	701.8411254882812	717.4823608398438	787.554931640625	633.3955078125	712.159912109375	771.3258666992188	620.1162109375	1494.868530273438	553.1572875976562	789.93994140625	1578.9208984375	488.1647033691406	725.9417114257812	1572.203125	597.7767333984375	689.7492065429688	1497.316162109375	407.8856811523438	838.796630859375	873.3768920898438	357.5758056640625	741.8325805664062	891.9353637695312	671.6511840820312	870.8876953125	912.4851684570312	466.9194030761719	922.9857788085938	473.4950561523438	482.7550964355469	905.5574951171875	622.922607421875	430.5159606933594	900.0084228515625	39.87534713745117	489.2034912109375	931.6256103515625	317.7033386230469	486.2329711914062	1041.053344726562	29.74453353881836	642.9536743164062	955.73046875	38.43513107299805	631.675048828125	995.968994140625	32.7513313293457	537.8461303710938	829.0985107421875	38.83024215698242	521.66455078125	668.15234375	458.5425720214844	659.9210815429688	655.745849609375	714.033203125	685.57958984375	381.0157165527344	187.314453125	482.4074096679688	608.024658203125	342.8983764648438	615.525634765625	507.5857849121094	40.01517105102539	519.2503051757812	494.3432922363281	85.82251739501953	462.4248046875	425.5340270996094	96.89688110351562	530.8629760742188	377.465576171875	221.7743682861328	421.5530700683594	806.9625244140625	785.2228393554688	259.6694946289062	622.8029174804688	843.7777709960938	672.3333129882812	
